<svg t="1623721054878" class="icon" viewBox="0 0 1024 1024" version="1.1" xmlns="http://www.w3.org/2000/svg" p-id="2575" width="64" height="64"><path d="M50.99102 509.910204l-1.922612 2.089796c-16.864653 19.936653-2.904816 51.450776 24.074449 51.450776l103.277714-0.041796V898.612245a31.346939 31.346939 0 0 0 31.367837 31.346939L449.306122 929.938286l3.030205-0.146286A31.346939 31.346939 0 0 0 480.653061 898.612245V700.081633h62.693878v198.509714a31.346939 31.346939 0 0 0 31.346939 31.346939l220.619755 0.020898 3.009306-0.146286A31.346939 31.346939 0 0 0 826.660571 898.612245l-0.020898-335.203265 103.319511 0.041796c27.940571 0 41.921306-33.812898 22.151836-53.540572L523.702857 82.296163a31.346939 31.346939 0 0 0-44.303673 0L50.99102 509.910204zM501.55102 148.772571l352.611266 351.963429h-58.848653l-3.009306 0.146286a31.346939 31.346939 0 0 0-28.337633 31.200653V867.265306l-157.925878-0.020898V668.734694a31.346939 31.346939 0 0 0-31.346938-31.346939h-125.387756l-3.009306 0.146286A31.346939 31.346939 0 0 0 417.959184 668.734694v198.509714l-178.844735 0.020898V532.062041l-0.146286-3.009306a31.346939 31.346939 0 0 0-31.200653-28.316735H148.918857L501.55102 148.772571z" p-id="2576"></path></svg>